<svg width="19" height="18" viewBox="0 0 19 18" fill="none" xmlns="http://www.w3.org/2000/svg">
<path d="M17.4757 0H1.46175C0.9135 0 0.46875 0.44475 0.46875 0.993V17.007C0.46875 17.556 0.9135 18 1.46175 18H10.0822V11.0295H7.7355V8.31375H10.0822V6.3075C10.0822 3.98325 11.5027 2.71875 13.5765 2.71875C14.5702 2.71875 15.4245 2.7915 15.6735 2.8245V5.2545H14.2327C13.1077 5.2545 12.8888 5.79525 12.8888 6.58275V8.316H15.5767L15.228 11.0385H12.8888V18H17.475C18.0247 18 18.4688 17.556 18.4688 17.007V0.993C18.4688 0.44475 18.0247 0 17.4757 0Z" fill="#3D3D4E"/>
</svg>
