<svg width="19" height="18" viewBox="0 0 19 18" fill="none" xmlns="http://www.w3.org/2000/svg">
<path fill-rule="evenodd" clip-rule="evenodd" d="M9.20312 0C6.7585 0 6.4525 0.01125 5.49288 0.054C4.53438 0.099 3.88188 0.24975 3.30813 0.4725C2.71637 0.702 2.2135 1.01025 1.714 1.51088C1.21338 2.01038 0.904 2.51213 0.675625 3.105C0.452875 3.67875 0.301 4.33125 0.257125 5.28975C0.212125 6.24938 0.203125 6.55538 0.203125 9C0.203125 11.4446 0.214375 11.7506 0.257125 12.7103C0.302125 13.6688 0.452875 14.3224 0.675625 14.895C0.905125 15.4867 1.21338 15.9896 1.714 16.4891C2.2135 16.9897 2.71525 17.2991 3.30813 17.5275C3.88188 17.7502 4.53438 17.9021 5.49288 17.946C6.4525 17.991 6.7585 18 9.20312 18C11.6477 18 11.9538 17.9888 12.9134 17.946C13.8719 17.901 14.5255 17.7502 15.0981 17.5275C15.6899 17.298 16.1927 16.9897 16.6922 16.4891C17.1929 15.9896 17.5023 15.4879 17.7306 14.895C17.9534 14.3212 18.1052 13.6688 18.1491 12.7103C18.1941 11.7506 18.2031 11.4446 18.2031 9C18.2031 6.55538 18.1919 6.24938 18.1491 5.28975C18.1041 4.33125 17.9534 3.67762 17.7306 3.105C17.5011 2.51325 17.1929 2.01038 16.6922 1.51088C16.1927 1.01025 15.691 0.700875 15.0981 0.4725C14.5244 0.24975 13.8719 0.097875 12.9134 0.054C11.9538 0.009 11.6477 0 9.20312 0ZM9.20312 1.62C11.6061 1.62 11.8919 1.63125 12.8403 1.674C13.7177 1.7145 14.1936 1.86075 14.5109 1.9845C14.9316 2.14762 15.2309 2.34225 15.5459 2.65725C15.8609 2.97225 16.0555 3.2715 16.2186 3.69225C16.3424 4.0095 16.4886 4.48538 16.5291 5.36287C16.5719 6.31238 16.582 6.597 16.582 9C16.582 11.403 16.5707 11.6887 16.528 12.6371C16.4875 13.5146 16.3412 13.9905 16.2175 14.3078C16.0544 14.7285 15.8597 15.0277 15.5448 15.3427C15.2297 15.6577 14.9305 15.8524 14.5098 16.0155C14.1925 16.1392 13.7166 16.2855 12.8391 16.326C11.8896 16.3687 11.605 16.3789 9.202 16.3789C6.799 16.3789 6.51325 16.3676 5.56487 16.3249C4.68737 16.2844 4.2115 16.1381 3.89425 16.0144C3.4735 15.8512 3.17425 15.6566 2.85925 15.3416C2.54425 15.0266 2.34963 14.7274 2.1865 14.3066C2.06275 13.9894 1.9165 13.5135 1.876 12.636C1.83438 11.6888 1.82313 11.403 1.82313 9C1.82313 6.597 1.83438 6.31125 1.87713 5.36287C1.91763 4.48538 2.06388 4.0095 2.18763 3.69225C2.35075 3.2715 2.54537 2.97225 2.86037 2.65725C3.17537 2.34225 3.47463 2.14762 3.89538 1.9845C4.21263 1.86075 4.6885 1.7145 5.566 1.674C6.51438 1.63125 6.80013 1.62 9.20312 1.62ZM9.20312 4.3785C6.64937 4.3785 4.58162 6.4485 4.58162 9C4.58162 11.5538 6.65163 13.6215 9.20312 13.6215C11.7569 13.6215 13.8246 11.5515 13.8246 9C13.8246 6.44625 11.7546 4.3785 9.20312 4.3785ZM9.20312 12.0004C7.546 12.0004 6.20275 10.6571 6.20275 9C6.20275 7.34288 7.546 5.99963 9.20312 5.99963C10.8603 5.99963 12.2035 7.34288 12.2035 9C12.2035 10.6571 10.8603 12.0004 9.20312 12.0004ZM15.0869 4.19625C15.0869 4.7925 14.6031 5.27625 14.0069 5.27625C13.4106 5.27625 12.9269 4.7925 12.9269 4.19625C12.9269 3.6 13.4106 3.11625 14.0069 3.11625C14.6031 3.11625 15.0869 3.6 15.0869 4.19625Z" fill="#3D3D4E"/>
</svg>
