<svg width="19" height="18" viewBox="0 0 19 18" fill="none" xmlns="http://www.w3.org/2000/svg">
<path d="M9.95024 0C4.98449 0 0.959244 4.02525 0.959244 8.99025C0.959244 12.7995 3.32774 16.053 6.67274 17.3617C6.59399 16.65 6.52349 15.5595 6.70349 14.7825C6.86774 14.0797 7.75799 10.3148 7.75799 10.3148C7.75799 10.3148 7.48874 9.77475 7.48874 8.979C7.48874 7.73175 8.21399 6.79575 9.11474 6.79575C9.88274 6.79575 10.2532 7.3725 10.2532 8.06175C10.2532 8.8335 9.76349 9.987 9.50924 11.0557C9.29549 11.9505 9.95924 12.6795 10.8405 12.6795C12.4365 12.6795 13.6665 10.9957 13.6665 8.56425C13.6665 6.4185 12.1192 4.9125 9.91049 4.9125C7.35299 4.9125 5.85374 6.834 5.85374 8.81175C5.85374 9.5865 6.14924 10.419 6.52049 10.8675C6.59474 10.9575 6.60449 11.0363 6.58424 11.1263C6.51674 11.4075 6.36449 12.0255 6.33374 12.1485C6.29399 12.3173 6.20474 12.3518 6.03299 12.2723C4.91174 11.7548 4.20824 10.1138 4.20824 8.78775C4.20824 5.95575 6.26924 3.34875 10.1482 3.34875C13.2667 3.34875 15.6922 5.574 15.6922 8.541C15.6922 11.6423 13.737 14.1375 11.0175 14.1375C10.107 14.1375 9.25199 13.6658 8.94899 13.1033L8.38724 15.2393C8.18549 16.023 7.63424 17.0033 7.26374 17.5988C8.10599 17.8575 8.99324 18 9.92624 18C14.8815 18 18.915 13.9762 18.915 9.00975C18.915 4.0425 14.8815 0.0195 9.92624 0.0195L9.95024 0Z" fill="#3D3D4E"/>
</svg>
