<svg width="19" height="16" viewBox="0 0 19 16" fill="none" xmlns="http://www.w3.org/2000/svg">
<path d="M18.6999 2.42682C18.0361 2.71857 17.3274 2.91732 16.5811 3.00807C17.3416 2.54982 17.9266 1.82757 18.2034 0.96582C17.4901 1.38207 16.6996 1.68507 15.8581 1.85382C15.1861 1.13457 14.2284 0.68457 13.1649 0.68457C11.1271 0.68457 9.47488 2.33682 9.47488 4.37232C9.47488 4.66482 9.50863 4.94607 9.57013 5.21532C6.50262 5.07057 3.78387 3.59757 1.96438 1.37082C1.64412 1.91232 1.46487 2.54157 1.46487 3.22707C1.46487 4.50957 2.11738 5.63682 3.10588 6.29907C2.50063 6.27957 1.93138 6.11307 1.43488 5.83707V5.88282C1.43488 7.67157 2.70463 9.16332 4.39438 9.50307C4.08463 9.58632 3.75763 9.63132 3.42238 9.63132C3.18688 9.63132 2.96112 9.60882 2.73537 9.56682C3.20863 11.0316 4.56912 12.0996 6.18837 12.1296C4.92837 13.1188 3.33162 13.7083 1.61187 13.7083C1.31937 13.7083 1.02762 13.6911 0.734375 13.6581C2.37612 14.7036 4.31038 15.3148 6.40213 15.3148C13.1926 15.3148 16.9014 9.69282 16.9014 4.82532C16.9014 4.66857 16.9014 4.51032 16.8901 4.35282C17.6109 3.83607 18.2401 3.18282 18.7351 2.44182L18.6999 2.42682Z" fill="#3D3D4E"/>
</svg>
