<svg width="1920" height="60" viewBox="0 0 1920 60" fill="none" xmlns="http://www.w3.org/2000/svg">
<rect width="1920" height="60" fill="#0E1821"/>
<path d="M649.376 24.252C650.464 24.252 651.328 24.428 651.968 24.78C652.619 25.132 653.083 25.724 653.36 26.556C653.648 27.388 653.792 28.5293 653.792 29.98C653.792 31.4307 653.648 32.572 653.36 33.404C653.083 34.236 652.619 34.828 651.968 35.18C651.328 35.532 650.464 35.708 649.376 35.708C648.288 35.708 647.419 35.532 646.768 35.18C646.117 34.828 645.648 34.236 645.36 33.404C645.072 32.572 644.928 31.4307 644.928 29.98C644.928 28.5293 645.072 27.388 645.36 26.556C645.648 25.724 646.117 25.132 646.768 24.78C647.419 24.428 648.288 24.252 649.376 24.252ZM649.376 25.644C648.683 25.644 648.133 25.7773 647.728 26.044C647.333 26.3 647.051 26.748 646.88 27.388C646.709 28.0173 646.624 28.8813 646.624 29.98C646.624 31.0787 646.709 31.948 646.88 32.588C647.051 33.2173 647.333 33.6653 647.728 33.932C648.133 34.188 648.683 34.316 649.376 34.316C650.069 34.316 650.613 34.188 651.008 33.932C651.413 33.6653 651.701 33.2173 651.872 32.588C652.043 31.948 652.128 31.0787 652.128 29.98C652.128 28.8813 652.043 28.0173 651.872 27.388C651.701 26.748 651.413 26.3 651.008 26.044C650.613 25.7773 650.069 25.644 649.376 25.644ZM661.065 27.692V29.948C661.065 30.2573 661.033 30.5613 660.969 30.86H661.977C662.468 30.86 662.862 30.7427 663.161 30.508C663.46 30.2733 663.716 29.9213 663.929 29.452C664.142 28.9827 664.377 28.396 664.633 27.692H666.233C665.934 28.5027 665.668 29.1747 665.433 29.708C665.198 30.2307 664.921 30.6307 664.601 30.908C664.281 31.1747 663.838 31.34 663.273 31.404V31.468C663.721 31.5107 664.089 31.612 664.377 31.772C664.676 31.932 664.932 32.172 665.145 32.492C665.358 32.8013 665.566 33.2067 665.769 33.708C665.972 34.1987 666.201 34.796 666.457 35.5H664.841C664.521 34.636 664.244 33.948 664.009 33.436C663.774 32.924 663.508 32.5613 663.209 32.348C662.91 32.124 662.5 32.0173 661.977 32.028H660.985C661.038 32.284 661.065 32.5293 661.065 32.764V35.5H659.513V27.692H661.065ZM671.514 27.5C672.421 27.5 673.146 27.6333 673.69 27.9C674.245 28.1667 674.645 28.604 674.89 29.212C675.136 29.8093 675.258 30.604 675.258 31.596C675.258 32.5987 675.136 33.404 674.89 34.012C674.645 34.6093 674.245 35.0413 673.69 35.308C673.146 35.5747 672.421 35.708 671.514 35.708C670.597 35.708 669.861 35.5747 669.306 35.308C668.762 35.0413 668.368 34.6093 668.122 34.012C667.877 33.404 667.754 32.5987 667.754 31.596C667.754 30.604 667.877 29.8093 668.122 29.212C668.368 28.604 668.762 28.1667 669.306 27.9C669.861 27.6333 670.597 27.5 671.514 27.5ZM671.514 28.748C670.97 28.748 670.544 28.8333 670.234 29.004C669.925 29.1747 669.701 29.468 669.562 29.884C669.434 30.2893 669.37 30.86 669.37 31.596C669.37 32.332 669.434 32.908 669.562 33.324C669.701 33.74 669.925 34.0333 670.234 34.204C670.544 34.364 670.97 34.444 671.514 34.444C672.048 34.444 672.469 34.364 672.778 34.204C673.088 34.0333 673.306 33.74 673.434 33.324C673.562 32.908 673.626 32.332 673.626 31.596C673.626 30.86 673.562 30.2893 673.434 29.884C673.306 29.468 673.088 29.1747 672.778 29.004C672.469 28.8333 672.048 28.748 671.514 28.748ZM686.237 27.692C686.621 27.692 686.813 27.8787 686.813 28.252L687.133 35.5H685.693L685.405 28.86H685.149L683.277 34.124C683.235 34.284 683.165 34.4067 683.069 34.492C682.973 34.5773 682.84 34.62 682.669 34.62H681.597C681.288 34.62 681.085 34.4547 680.989 34.124L679.117 28.86H678.861L678.589 35.5H677.165L677.469 28.252C677.469 27.8787 677.667 27.692 678.061 27.692H679.597C679.907 27.692 680.104 27.8573 680.189 28.188L681.693 32.492C681.768 32.684 681.827 32.8707 681.869 33.052C681.923 33.2333 681.971 33.42 682.013 33.612H682.253C682.307 33.4093 682.355 33.2173 682.397 33.036C682.451 32.8547 682.509 32.6733 682.573 32.492L684.077 28.188C684.173 27.8573 684.376 27.692 684.685 27.692H686.237ZM696.236 27.692V35.5H694.716V28.892H690.908V35.5H689.404V27.692H696.236ZM702.445 27.5C703.341 27.5 704.018 27.6867 704.477 28.06C704.946 28.4227 705.181 29.0893 705.181 30.06V35.5H703.965L703.789 34.204C703.586 34.4173 703.325 34.636 703.005 34.86C702.696 35.084 702.338 35.2707 701.933 35.42C701.528 35.5693 701.09 35.644 700.621 35.644C699.917 35.644 699.346 35.4573 698.909 35.084C698.472 34.7107 698.253 34.172 698.253 33.468V32.62C698.253 32.012 698.445 31.5373 698.829 31.196C699.213 30.8547 699.757 30.684 700.461 30.684H703.645V30.06C703.634 29.6013 703.522 29.2707 703.309 29.068C703.106 28.8653 702.706 28.764 702.109 28.764C701.693 28.764 701.181 28.7853 700.573 28.828C699.965 28.86 699.357 28.9027 698.749 28.956L698.605 27.852C698.968 27.788 699.373 27.7293 699.821 27.676C700.269 27.6227 700.722 27.58 701.181 27.548C701.64 27.516 702.061 27.5 702.445 27.5ZM700.973 34.38C701.346 34.3907 701.773 34.3053 702.253 34.124C702.744 33.932 703.208 33.6493 703.645 33.276V31.772L700.797 31.788C700.434 31.7987 700.178 31.8947 700.029 32.076C699.88 32.2467 699.805 32.4867 699.805 32.796V33.276C699.805 34.012 700.194 34.38 700.973 34.38ZM709.08 27.692V30.78H712.984V27.692H714.504V35.5H712.984V31.932H709.08V35.5H707.56V27.692H709.08ZM723.943 27.692V35.5H722.551V30.524C722.551 30.3533 722.556 30.1827 722.567 30.012C722.588 29.8307 722.604 29.6387 722.615 29.436H722.567C722.503 29.596 722.417 29.7667 722.311 29.948C722.215 30.1187 722.119 30.268 722.023 30.396L718.231 35.5H716.935V27.692H718.327V32.684C718.327 32.8653 718.321 33.0413 718.311 33.212C718.3 33.372 718.289 33.5533 718.279 33.756H718.311C718.385 33.5853 718.471 33.42 718.567 33.26C718.673 33.1 718.775 32.956 718.871 32.828L722.663 27.692H723.943ZM733.396 27.692V35.5H732.004V30.524C732.004 30.3533 732.009 30.1827 732.02 30.012C732.041 29.8307 732.057 29.6387 732.068 29.436H732.02C731.956 29.596 731.871 29.7667 731.764 29.948C731.668 30.1187 731.572 30.268 731.476 30.396L727.684 35.5H726.388V27.692H727.78V32.684C727.78 32.8653 727.775 33.0413 727.764 33.212C727.753 33.372 727.743 33.5533 727.732 33.756H727.764C727.839 33.5853 727.924 33.42 728.02 33.26C728.127 33.1 728.228 32.956 728.324 32.828L732.116 27.692H733.396Z" fill="white"/>
<path d="M780.84 24.46C781.149 24.46 781.347 24.604 781.432 24.892L784.92 35.5H783.256L782.216 32.14H777.816L776.776 35.5H775.128L778.616 24.892C778.691 24.604 778.888 24.46 779.208 24.46H780.84ZM779.528 26.62L778.232 30.812H781.816L780.504 26.62C780.408 26.3107 780.323 26.0013 780.248 25.692H779.8C779.757 25.8413 779.715 25.996 779.672 26.156C779.629 26.316 779.581 26.4707 779.528 26.62ZM787.815 27.692V29.948C787.815 30.2573 787.783 30.5613 787.719 30.86H788.727C789.218 30.86 789.612 30.7427 789.911 30.508C790.21 30.2733 790.466 29.9213 790.679 29.452C790.892 28.9827 791.127 28.396 791.383 27.692H792.983C792.684 28.5027 792.418 29.1747 792.183 29.708C791.948 30.2307 791.671 30.6307 791.351 30.908C791.031 31.1747 790.588 31.34 790.023 31.404V31.468C790.471 31.5107 790.839 31.612 791.127 31.772C791.426 31.932 791.682 32.172 791.895 32.492C792.108 32.8013 792.316 33.2067 792.519 33.708C792.722 34.1987 792.951 34.796 793.207 35.5H791.591C791.271 34.636 790.994 33.948 790.759 33.436C790.524 32.924 790.258 32.5613 789.959 32.348C789.66 32.124 789.25 32.0173 788.727 32.028H787.735C787.788 32.284 787.815 32.5293 787.815 32.764V35.5H786.263V27.692H787.815ZM796.455 27.692V34.316H800.135V27.692H801.671L801.655 34.316H802.743V37.788H801.735L801.575 35.5H794.951V27.692H796.455ZM811.536 27.692V35.5H810.145V30.524C810.145 30.3533 810.15 30.1827 810.161 30.012C810.182 29.8307 810.198 29.6387 810.209 29.436H810.161C810.097 29.596 810.011 29.7667 809.905 29.948C809.809 30.1187 809.713 30.268 809.617 30.396L805.825 35.5H804.529V27.692H805.921V32.684C805.921 32.8653 805.915 33.0413 805.905 33.212C805.894 33.372 805.883 33.5533 805.873 33.756H805.905C805.979 33.5853 806.065 33.42 806.161 33.26C806.267 33.1 806.369 32.956 806.465 32.828L810.257 27.692H811.536ZM820.99 27.692V35.5H819.598V30.524C819.598 30.3533 819.603 30.1827 819.614 30.012C819.635 29.8307 819.651 29.6387 819.662 29.436H819.614C819.55 29.596 819.464 29.7667 819.358 29.948C819.262 30.1187 819.166 30.268 819.07 30.396L815.278 35.5H813.982V27.692H815.374V32.684C815.374 32.8653 815.368 33.0413 815.358 33.212C815.347 33.372 815.336 33.5533 815.326 33.756H815.358C815.432 33.5853 815.518 33.42 815.614 33.26C815.72 33.1 815.822 32.956 815.918 32.828L819.71 27.692H820.99Z" fill="white"/>
<path d="M868.232 24.316C869.139 24.316 869.859 24.4173 870.392 24.62C870.925 24.8227 871.304 25.1747 871.528 25.676C871.752 26.1773 871.864 26.8867 871.864 27.804C871.864 28.7107 871.752 29.42 871.528 29.932C871.304 30.4333 870.941 30.7853 870.44 30.988C869.939 31.18 869.261 31.276 868.408 31.276C867.96 31.276 867.523 31.2653 867.096 31.244C866.68 31.212 866.296 31.18 865.944 31.148V35.5H864.344V24.46C864.749 24.4173 865.133 24.3853 865.496 24.364C865.859 24.3427 866.253 24.332 866.68 24.332C867.107 24.3213 867.624 24.316 868.232 24.316ZM868.2 25.644C867.763 25.644 867.352 25.6493 866.968 25.66C866.595 25.66 866.253 25.66 865.944 25.66V29.948H868.2C868.712 29.948 869.117 29.8893 869.416 29.772C869.715 29.644 869.928 29.4253 870.056 29.116C870.184 28.8067 870.248 28.3693 870.248 27.804C870.248 27.228 870.184 26.7853 870.056 26.476C869.928 26.1667 869.715 25.9533 869.416 25.836C869.117 25.708 868.712 25.644 868.2 25.644ZM877.523 27.5C878.419 27.5 879.097 27.6867 879.555 28.06C880.025 28.4227 880.259 29.0893 880.259 30.06V35.5H879.043L878.867 34.204C878.665 34.4173 878.403 34.636 878.083 34.86C877.774 35.084 877.417 35.2707 877.011 35.42C876.606 35.5693 876.169 35.644 875.699 35.644C874.995 35.644 874.425 35.4573 873.987 35.084C873.55 34.7107 873.331 34.172 873.331 33.468V32.62C873.331 32.012 873.523 31.5373 873.907 31.196C874.291 30.8547 874.835 30.684 875.539 30.684H878.723V30.06C878.713 29.6013 878.601 29.2707 878.387 29.068C878.185 28.8653 877.785 28.764 877.187 28.764C876.771 28.764 876.259 28.7853 875.651 28.828C875.043 28.86 874.435 28.9027 873.827 28.956L873.683 27.852C874.046 27.788 874.451 27.7293 874.899 27.676C875.347 27.6227 875.801 27.58 876.259 27.548C876.718 27.516 877.139 27.5 877.523 27.5ZM876.051 34.38C876.425 34.3907 876.851 34.3053 877.331 34.124C877.822 33.932 878.286 33.6493 878.723 33.276V31.772L875.875 31.788C875.513 31.7987 875.257 31.8947 875.107 32.076C874.958 32.2467 874.883 32.4867 874.883 32.796V33.276C874.883 34.012 875.273 34.38 876.051 34.38ZM886.03 27.5C886.393 27.5 886.814 27.5267 887.294 27.58C887.785 27.6333 888.227 27.7347 888.622 27.884L888.43 28.876C888.057 28.844 887.673 28.8227 887.278 28.812C886.894 28.7907 886.563 28.78 886.286 28.78C885.699 28.78 885.23 28.8653 884.878 29.036C884.526 29.196 884.27 29.4787 884.11 29.884C883.961 30.2893 883.886 30.8547 883.886 31.58C883.886 32.316 883.961 32.8867 884.11 33.292C884.27 33.6973 884.526 33.9853 884.878 34.156C885.23 34.316 885.699 34.396 886.286 34.396C886.531 34.396 886.878 34.3853 887.326 34.364C887.774 34.3427 888.201 34.3 888.606 34.236L888.75 35.26C888.366 35.4093 887.934 35.516 887.454 35.58C886.974 35.6547 886.494 35.692 886.014 35.692C885.107 35.692 884.377 35.5587 883.822 35.292C883.278 35.0253 882.883 34.5933 882.638 33.996C882.393 33.3987 882.27 32.5933 882.27 31.58C882.27 30.5773 882.393 29.7773 882.638 29.18C882.883 28.5827 883.278 28.156 883.822 27.9C884.377 27.6333 885.113 27.5 886.03 27.5ZM893.827 27.5C894.189 27.5 894.611 27.5267 895.091 27.58C895.581 27.6333 896.024 27.7347 896.419 27.884L896.227 28.876C895.853 28.844 895.469 28.8227 895.075 28.812C894.691 28.7907 894.36 28.78 894.083 28.78C893.496 28.78 893.027 28.8653 892.675 29.036C892.323 29.196 892.067 29.4787 891.907 29.884C891.757 30.2893 891.683 30.8547 891.683 31.58C891.683 32.316 891.757 32.8867 891.907 33.292C892.067 33.6973 892.323 33.9853 892.675 34.156C893.027 34.316 893.496 34.396 894.083 34.396C894.328 34.396 894.675 34.3853 895.123 34.364C895.571 34.3427 895.997 34.3 896.403 34.236L896.547 35.26C896.163 35.4093 895.731 35.516 895.251 35.58C894.771 35.6547 894.291 35.692 893.811 35.692C892.904 35.692 892.173 35.5587 891.619 35.292C891.075 35.0253 890.68 34.5933 890.435 33.996C890.189 33.3987 890.067 32.5933 890.067 31.58C890.067 30.5773 890.189 29.7773 890.435 29.18C890.68 28.5827 891.075 28.156 891.619 27.9C892.173 27.6333 892.909 27.5 893.827 27.5ZM899.621 27.692L899.765 28.908C900.17 28.4813 900.661 28.14 901.237 27.884C901.813 27.628 902.383 27.5 902.949 27.5C903.919 27.5 904.613 27.852 905.029 28.556C905.445 29.26 905.653 30.2893 905.653 31.644C905.653 32.6573 905.546 33.4573 905.333 34.044C905.119 34.6307 904.794 35.052 904.357 35.308C903.919 35.564 903.37 35.692 902.709 35.692C902.207 35.692 901.711 35.628 901.221 35.5C900.741 35.372 900.287 35.164 899.861 34.876C899.903 35.3987 899.919 35.9373 899.909 36.492V38.684H898.373V27.692H899.621ZM902.421 28.796C902.005 28.796 901.605 28.892 901.221 29.084C900.837 29.2653 900.399 29.5373 899.909 29.9V33.964C900.357 34.092 900.757 34.1987 901.109 34.284C901.471 34.3693 901.855 34.412 902.261 34.412C902.698 34.412 903.045 34.3373 903.301 34.188C903.567 34.0387 903.759 33.7667 903.877 33.372C903.994 32.9667 904.053 32.3907 904.053 31.644C904.053 30.5667 903.925 29.8253 903.669 29.42C903.423 29.004 903.007 28.796 902.421 28.796ZM911.139 27.5C912.046 27.5 912.771 27.6333 913.315 27.9C913.87 28.1667 914.27 28.604 914.515 29.212C914.761 29.8093 914.883 30.604 914.883 31.596C914.883 32.5987 914.761 33.404 914.515 34.012C914.27 34.6093 913.87 35.0413 913.315 35.308C912.771 35.5747 912.046 35.708 911.139 35.708C910.222 35.708 909.486 35.5747 908.931 35.308C908.387 35.0413 907.993 34.6093 907.747 34.012C907.502 33.404 907.379 32.5987 907.379 31.596C907.379 30.604 907.502 29.8093 907.747 29.212C907.993 28.604 908.387 28.1667 908.931 27.9C909.486 27.6333 910.222 27.5 911.139 27.5ZM911.139 28.748C910.595 28.748 910.169 28.8333 909.859 29.004C909.55 29.1747 909.326 29.468 909.187 29.884C909.059 30.2893 908.995 30.86 908.995 31.596C908.995 32.332 909.059 32.908 909.187 33.324C909.326 33.74 909.55 34.0333 909.859 34.204C910.169 34.364 910.595 34.444 911.139 34.444C911.673 34.444 912.094 34.364 912.403 34.204C912.713 34.0333 912.931 33.74 913.059 33.324C913.187 32.908 913.251 32.332 913.251 31.596C913.251 30.86 913.187 30.2893 913.059 29.884C912.931 29.468 912.713 29.1747 912.403 29.004C912.094 28.8333 911.673 28.748 911.139 28.748ZM918.102 27.692V30.604C918.102 30.9667 918.182 31.2227 918.342 31.372C918.502 31.5213 918.764 31.596 919.126 31.596C919.521 31.596 919.91 31.5587 920.294 31.484C920.678 31.4093 921.105 31.276 921.574 31.084V27.692H923.126V35.5H921.574V32.284C921.062 32.4653 920.54 32.604 920.006 32.7C919.473 32.796 919.004 32.844 918.598 32.844C917.254 32.844 916.582 32.2627 916.582 31.1V27.692H918.102ZM927.127 27.692V29.948C927.127 30.2573 927.095 30.5613 927.031 30.86H928.039C928.53 30.86 928.925 30.7427 929.223 30.508C929.522 30.2733 929.778 29.9213 929.991 29.452C930.205 28.9827 930.439 28.396 930.695 27.692H932.295C931.997 28.5027 931.73 29.1747 931.495 29.708C931.261 30.2307 930.983 30.6307 930.663 30.908C930.343 31.1747 929.901 31.34 929.335 31.404V31.468C929.783 31.5107 930.151 31.612 930.439 31.772C930.738 31.932 930.994 32.172 931.207 32.492C931.421 32.8013 931.629 33.2067 931.831 33.708C932.034 34.1987 932.263 34.796 932.519 35.5H930.903C930.583 34.636 930.306 33.948 930.071 33.436C929.837 32.924 929.57 32.5613 929.271 32.348C928.973 32.124 928.562 32.0173 928.039 32.028H927.047C927.101 32.284 927.127 32.5293 927.127 32.764V35.5H925.575V27.692H927.127ZM938.023 27.5C938.919 27.5 939.597 27.6867 940.055 28.06C940.525 28.4227 940.759 29.0893 940.759 30.06V35.5H939.543L939.367 34.204C939.165 34.4173 938.903 34.636 938.583 34.86C938.274 35.084 937.917 35.2707 937.511 35.42C937.106 35.5693 936.669 35.644 936.199 35.644C935.495 35.644 934.925 35.4573 934.487 35.084C934.05 34.7107 933.831 34.172 933.831 33.468V32.62C933.831 32.012 934.023 31.5373 934.407 31.196C934.791 30.8547 935.335 30.684 936.039 30.684H939.223V30.06C939.213 29.6013 939.101 29.2707 938.887 29.068C938.685 28.8653 938.285 28.764 937.687 28.764C937.271 28.764 936.759 28.7853 936.151 28.828C935.543 28.86 934.935 28.9027 934.327 28.956L934.183 27.852C934.546 27.788 934.951 27.7293 935.399 27.676C935.847 27.6227 936.301 27.58 936.759 27.548C937.218 27.516 937.639 27.5 938.023 27.5ZM936.551 34.38C936.925 34.3907 937.351 34.3053 937.831 34.124C938.322 33.932 938.786 33.6493 939.223 33.276V31.772L936.375 31.788C936.013 31.7987 935.757 31.8947 935.607 32.076C935.458 32.2467 935.383 32.4867 935.383 32.796V33.276C935.383 34.012 935.773 34.38 936.551 34.38ZM950.333 24.252C951.303 24.252 952.071 24.4493 952.637 24.844C953.202 25.228 953.607 25.8413 953.853 26.684C954.098 27.5267 954.221 28.6253 954.221 29.98C954.221 31.3347 954.098 32.4333 953.853 33.276C953.607 34.1187 953.202 34.7373 952.637 35.132C952.071 35.516 951.303 35.708 950.333 35.708C949.362 35.708 948.594 35.516 948.029 35.132C947.463 34.7373 947.058 34.1187 946.813 33.276C946.567 32.4333 946.445 31.3347 946.445 29.98C946.445 28.6253 946.567 27.5267 946.813 26.684C947.058 25.8413 947.463 25.228 948.029 24.844C948.594 24.4493 949.362 24.252 950.333 24.252ZM950.317 25.612C949.73 25.612 949.266 25.7507 948.925 26.028C948.594 26.3053 948.359 26.764 948.221 27.404C948.082 28.044 948.013 28.9027 948.013 29.98C948.013 31.0573 948.082 31.916 948.221 32.556C948.359 33.196 948.594 33.6547 948.925 33.932C949.266 34.2093 949.73 34.348 950.317 34.348C950.914 34.348 951.378 34.2093 951.709 33.932C952.05 33.6547 952.29 33.196 952.429 32.556C952.578 31.916 952.653 31.0573 952.653 29.98C952.653 28.9027 952.578 28.044 952.429 27.404C952.29 26.764 952.05 26.3053 951.709 26.028C951.378 25.7507 950.914 25.612 950.317 25.612ZM957.747 23.004V38.204H956.627V23.004H957.747ZM964.052 24.252C965.022 24.252 965.79 24.4493 966.356 24.844C966.921 25.228 967.326 25.8413 967.572 26.684C967.817 27.5267 967.94 28.6253 967.94 29.98C967.94 31.3347 967.817 32.4333 967.572 33.276C967.326 34.1187 966.921 34.7373 966.356 35.132C965.79 35.516 965.022 35.708 964.052 35.708C963.081 35.708 962.313 35.516 961.748 35.132C961.182 34.7373 960.777 34.1187 960.532 33.276C960.286 32.4333 960.164 31.3347 960.164 29.98C960.164 28.6253 960.286 27.5267 960.532 26.684C960.777 25.8413 961.182 25.228 961.748 24.844C962.313 24.4493 963.081 24.252 964.052 24.252ZM964.036 25.612C963.449 25.612 962.985 25.7507 962.644 26.028C962.313 26.3053 962.078 26.764 961.94 27.404C961.801 28.044 961.732 28.9027 961.732 29.98C961.732 31.0573 961.801 31.916 961.94 32.556C962.078 33.196 962.313 33.6547 962.644 33.932C962.985 34.2093 963.449 34.348 964.036 34.348C964.633 34.348 965.097 34.2093 965.428 33.932C965.769 33.6547 966.009 33.196 966.148 32.556C966.297 31.916 966.372 31.0573 966.372 29.98C966.372 28.9027 966.297 28.044 966.148 27.404C966.009 26.764 965.769 26.3053 965.428 26.028C965.097 25.7507 964.633 25.612 964.036 25.612ZM971.466 23.004V38.204H970.346V23.004H971.466ZM977.642 24.46V35.5H976.042V26.924C976.042 26.7533 976.048 26.588 976.058 26.428C976.069 26.2573 976.09 26.0867 976.122 25.916L973.434 26.732L973.226 25.596L976.042 24.46H977.642ZM984.287 24.3C985.247 24.3 985.983 24.4013 986.495 24.604C987.007 24.8067 987.359 25.1267 987.551 25.564C987.753 25.9907 987.855 26.54 987.855 27.212C987.855 27.916 987.732 28.4973 987.487 28.956C987.241 29.4147 986.836 29.676 986.271 29.74V29.804C986.975 29.8787 987.455 30.1773 987.711 30.7C987.967 31.212 988.095 31.8947 988.095 32.748C988.095 33.4307 987.988 33.9853 987.775 34.412C987.572 34.8387 987.193 35.1533 986.639 35.356C986.095 35.5587 985.311 35.66 984.287 35.66C983.263 35.66 982.473 35.5587 981.919 35.356C981.364 35.1533 980.98 34.8387 980.767 34.412C980.553 33.9853 980.447 33.4307 980.447 32.748C980.447 31.8947 980.575 31.212 980.831 30.7C981.097 30.1773 981.583 29.8787 982.287 29.804V29.74C981.721 29.676 981.311 29.4147 981.055 28.956C980.809 28.4973 980.687 27.916 980.687 27.212C980.687 26.54 980.788 25.9907 980.991 25.564C981.193 25.1267 981.551 24.8067 982.063 24.604C982.585 24.4013 983.327 24.3 984.287 24.3ZM984.303 25.532C983.716 25.532 983.268 25.5907 982.959 25.708C982.649 25.8147 982.436 26.0013 982.319 26.268C982.212 26.5347 982.159 26.9027 982.159 27.372C982.159 27.8627 982.217 28.236 982.335 28.492C982.452 28.748 982.665 28.924 982.975 29.02C983.284 29.116 983.732 29.164 984.319 29.164C984.905 29.164 985.348 29.116 985.647 29.02C985.945 28.9133 986.143 28.732 986.239 28.476C986.345 28.22 986.399 27.852 986.399 27.372C986.399 26.9027 986.345 26.5347 986.239 26.268C986.132 26.0013 985.924 25.8147 985.615 25.708C985.316 25.5907 984.879 25.532 984.303 25.532ZM984.319 30.38C983.679 30.38 983.188 30.4387 982.847 30.556C982.505 30.6627 982.271 30.8653 982.143 31.164C982.015 31.452 981.951 31.8733 981.951 32.428C981.951 32.908 982.015 33.2867 982.143 33.564C982.271 33.8413 982.505 34.0387 982.847 34.156C983.188 34.2733 983.673 34.332 984.303 34.332C984.921 34.332 985.391 34.2733 985.711 34.156C986.041 34.0387 986.265 33.8413 986.383 33.564C986.511 33.2867 986.575 32.908 986.575 32.428C986.575 31.8627 986.511 31.436 986.383 31.148C986.265 30.8493 986.041 30.6467 985.711 30.54C985.391 30.4333 984.927 30.38 984.319 30.38Z" fill="white"/>
<path d="M1035.33 24.268C1035.81 24.268 1036.22 24.2787 1036.56 24.3C1036.9 24.3213 1037.22 24.3587 1037.5 24.412C1037.79 24.4547 1038.09 24.5187 1038.4 24.604L1038.24 25.804C1037.92 25.772 1037.62 25.7507 1037.34 25.74C1037.07 25.7187 1036.77 25.7027 1036.45 25.692C1036.14 25.6813 1035.77 25.676 1035.33 25.676C1034.65 25.676 1034.11 25.8093 1033.71 26.076C1033.32 26.3427 1033.03 26.7907 1032.86 27.42C1032.7 28.0387 1032.62 28.892 1032.62 29.98C1032.62 31.068 1032.7 31.9267 1032.86 32.556C1033.03 33.1747 1033.32 33.6173 1033.71 33.884C1034.11 34.1507 1034.65 34.284 1035.33 34.284C1036.02 34.284 1036.6 34.2733 1037.07 34.252C1037.55 34.22 1038.02 34.172 1038.46 34.108L1038.62 35.308C1038.15 35.4467 1037.67 35.5427 1037.17 35.596C1036.68 35.66 1036.06 35.692 1035.33 35.692C1034.25 35.692 1033.39 35.5107 1032.75 35.148C1032.11 34.7747 1031.65 34.172 1031.36 33.34C1031.07 32.508 1030.93 31.388 1030.93 29.98C1030.93 28.572 1031.07 27.452 1031.36 26.62C1031.65 25.788 1032.11 25.1907 1032.75 24.828C1033.39 24.4547 1034.25 24.268 1035.33 24.268ZM1043.59 27.5C1044.8 27.5 1045.66 27.7187 1046.2 28.156C1046.74 28.5827 1047.02 29.2173 1047.03 30.06C1047.03 30.764 1046.88 31.308 1046.57 31.692C1046.26 32.076 1045.75 32.268 1045.05 32.268H1041.56C1041.61 32.844 1041.72 33.2867 1041.89 33.596C1042.08 33.9053 1042.33 34.1187 1042.65 34.236C1042.98 34.3533 1043.4 34.412 1043.91 34.412C1044.33 34.412 1044.78 34.396 1045.29 34.364C1045.79 34.3213 1046.25 34.2733 1046.68 34.22L1046.82 35.228C1046.58 35.3453 1046.27 35.436 1045.89 35.5C1045.53 35.564 1045.16 35.612 1044.77 35.644C1044.39 35.676 1044.04 35.692 1043.72 35.692C1042.81 35.692 1042.08 35.5587 1041.51 35.292C1040.96 35.0147 1040.55 34.5773 1040.29 33.98C1040.05 33.372 1039.93 32.572 1039.93 31.58C1039.93 30.556 1040.05 29.7453 1040.29 29.148C1040.55 28.5507 1040.94 28.1293 1041.48 27.884C1042.02 27.628 1042.73 27.5 1043.59 27.5ZM1043.65 28.732C1043.14 28.732 1042.73 28.8067 1042.42 28.956C1042.12 29.0947 1041.9 29.34 1041.77 29.692C1041.63 30.0333 1041.55 30.524 1041.54 31.164H1044.65C1044.99 31.164 1045.21 31.052 1045.32 30.828C1045.42 30.604 1045.48 30.348 1045.48 30.06C1045.48 29.5907 1045.34 29.2547 1045.06 29.052C1044.78 28.8387 1044.32 28.732 1043.65 28.732ZM1050.28 27.692L1050.42 28.908C1050.83 28.4813 1051.32 28.14 1051.89 27.884C1052.47 27.628 1053.04 27.5 1053.6 27.5C1054.58 27.5 1055.27 27.852 1055.68 28.556C1056.1 29.26 1056.31 30.2893 1056.31 31.644C1056.31 32.6573 1056.2 33.4573 1055.99 34.044C1055.78 34.6307 1055.45 35.052 1055.01 35.308C1054.58 35.564 1054.03 35.692 1053.36 35.692C1052.86 35.692 1052.37 35.628 1051.88 35.5C1051.4 35.372 1050.94 35.164 1050.52 34.876C1050.56 35.3987 1050.58 35.9373 1050.56 36.492V38.684H1049.03V27.692H1050.28ZM1053.08 28.796C1052.66 28.796 1052.26 28.892 1051.88 29.084C1051.49 29.2653 1051.06 29.5373 1050.56 29.9V33.964C1051.01 34.092 1051.41 34.1987 1051.76 34.284C1052.13 34.3693 1052.51 34.412 1052.92 34.412C1053.35 34.412 1053.7 34.3373 1053.96 34.188C1054.22 34.0387 1054.42 33.7667 1054.53 33.372C1054.65 32.9667 1054.71 32.3907 1054.71 31.644C1054.71 30.5667 1054.58 29.8253 1054.32 29.42C1054.08 29.004 1053.66 28.796 1053.08 28.796ZM1061.68 27.612C1062.5 27.612 1063.16 27.6707 1063.64 27.788C1064.13 27.9053 1064.48 28.1133 1064.69 28.412C1064.9 28.7107 1065.01 29.1373 1065.01 29.692C1065.01 30.2467 1064.88 30.668 1064.61 30.956C1064.34 31.244 1063.91 31.4093 1063.32 31.452V31.5C1064.05 31.564 1064.56 31.772 1064.85 32.124C1065.14 32.4653 1065.28 32.9507 1065.28 33.58C1065.28 34.1133 1065.18 34.5293 1064.96 34.828C1064.75 35.116 1064.41 35.3187 1063.94 35.436C1063.48 35.5533 1062.88 35.612 1062.13 35.612C1061.56 35.612 1061.06 35.6067 1060.64 35.596C1060.24 35.596 1059.85 35.5907 1059.49 35.58C1059.14 35.5693 1058.78 35.548 1058.4 35.516V27.708C1058.73 27.676 1059.05 27.6547 1059.36 27.644C1059.68 27.6333 1060.02 27.628 1060.39 27.628C1060.76 27.6173 1061.19 27.612 1061.68 27.612ZM1061.64 28.764C1061.28 28.764 1060.96 28.764 1060.66 28.764C1060.37 28.764 1060.1 28.764 1059.86 28.764V30.956H1061.83C1062.46 30.956 1062.9 30.8813 1063.16 30.732C1063.41 30.5827 1063.54 30.284 1063.54 29.836C1063.54 29.4093 1063.4 29.1267 1063.11 28.988C1062.83 28.8387 1062.34 28.764 1061.64 28.764ZM1061.83 31.996H1059.86V34.444C1060.14 34.444 1060.45 34.444 1060.79 34.444C1061.14 34.444 1061.51 34.444 1061.89 34.444C1062.57 34.444 1063.05 34.3693 1063.32 34.22C1063.59 34.06 1063.73 33.7347 1063.73 33.244C1063.73 32.7747 1063.59 32.4493 1063.3 32.268C1063.02 32.0867 1062.53 31.996 1061.83 31.996ZM1074.32 27.692V35.5H1072.93V30.524C1072.93 30.3533 1072.93 30.1827 1072.94 30.012C1072.96 29.8307 1072.98 29.6387 1072.99 29.436H1072.94C1072.88 29.596 1072.79 29.7667 1072.69 29.948C1072.59 30.1187 1072.49 30.268 1072.4 30.396L1068.61 35.5H1067.31V27.692H1068.7V32.684C1068.7 32.8653 1068.7 33.0413 1068.69 33.212C1068.68 33.372 1068.66 33.5533 1068.65 33.756H1068.69C1068.76 33.5853 1068.85 33.42 1068.94 33.26C1069.05 33.1 1069.15 32.956 1069.25 32.828L1073.04 27.692H1074.32ZM1080.15 27.5C1080.52 27.5 1080.94 27.5267 1081.42 27.58C1081.91 27.6333 1082.35 27.7347 1082.75 27.884L1082.55 28.876C1082.18 28.844 1081.8 28.8227 1081.4 28.812C1081.02 28.7907 1080.69 28.78 1080.41 28.78C1079.82 28.78 1079.35 28.8653 1079 29.036C1078.65 29.196 1078.39 29.4787 1078.23 29.884C1078.09 30.2893 1078.01 30.8547 1078.01 31.58C1078.01 32.316 1078.09 32.8867 1078.23 33.292C1078.39 33.6973 1078.65 33.9853 1079 34.156C1079.35 34.316 1079.82 34.396 1080.41 34.396C1080.66 34.396 1081 34.3853 1081.45 34.364C1081.9 34.3427 1082.33 34.3 1082.73 34.236L1082.87 35.26C1082.49 35.4093 1082.06 35.516 1081.58 35.58C1081.1 35.6547 1080.62 35.692 1080.14 35.692C1079.23 35.692 1078.5 35.5587 1077.95 35.292C1077.4 35.0253 1077.01 34.5933 1076.76 33.996C1076.52 33.3987 1076.39 32.5933 1076.39 31.58C1076.39 30.5773 1076.52 29.7773 1076.76 29.18C1077.01 28.5827 1077.4 28.156 1077.95 27.9C1078.5 27.6333 1079.24 27.5 1080.15 27.5ZM1095.24 27.692V35.5H1093.85V30.524C1093.85 30.3533 1093.85 30.1827 1093.86 30.012C1093.88 29.8307 1093.9 29.6387 1093.91 29.436H1093.86C1093.8 29.596 1093.71 29.7667 1093.61 29.948C1093.51 30.1187 1093.42 30.268 1093.32 30.396L1089.53 35.5H1088.23V27.692H1089.62V32.684C1089.62 32.8653 1089.62 33.0413 1089.61 33.212C1089.6 33.372 1089.59 33.5533 1089.58 33.756H1089.61C1089.68 33.5853 1089.77 33.42 1089.86 33.26C1089.97 33.1 1090.07 32.956 1090.17 32.828L1093.96 27.692H1095.24ZM1102.98 27.644C1103.67 27.644 1104.37 27.6493 1105.07 27.66C1105.79 27.6707 1106.46 27.7133 1107.1 27.788L1107.04 28.876H1103.63C1103.31 28.876 1103.08 28.9507 1102.93 29.1C1102.79 29.2387 1102.72 29.468 1102.72 29.788V35.5H1101.2V29.388C1101.2 28.2253 1101.79 27.644 1102.98 27.644ZM1112.4 27.5C1113.29 27.5 1113.97 27.6867 1114.43 28.06C1114.9 28.4227 1115.13 29.0893 1115.13 30.06V35.5H1113.92L1113.74 34.204C1113.54 34.4173 1113.28 34.636 1112.96 34.86C1112.65 35.084 1112.29 35.2707 1111.89 35.42C1111.48 35.5693 1111.04 35.644 1110.57 35.644C1109.87 35.644 1109.3 35.4573 1108.86 35.084C1108.42 34.7107 1108.21 34.172 1108.21 33.468V32.62C1108.21 32.012 1108.4 31.5373 1108.78 31.196C1109.17 30.8547 1109.71 30.684 1110.41 30.684H1113.6V30.06C1113.59 29.6013 1113.48 29.2707 1113.26 29.068C1113.06 28.8653 1112.66 28.764 1112.06 28.764C1111.65 28.764 1111.13 28.7853 1110.53 28.828C1109.92 28.86 1109.31 28.9027 1108.7 28.956L1108.56 27.852C1108.92 27.788 1109.33 27.7293 1109.77 27.676C1110.22 27.6227 1110.68 27.58 1111.13 27.548C1111.59 27.516 1112.01 27.5 1112.4 27.5ZM1110.93 34.38C1111.3 34.3907 1111.73 34.3053 1112.21 34.124C1112.7 33.932 1113.16 33.6493 1113.6 33.276V31.772L1110.75 31.788C1110.39 31.7987 1110.13 31.8947 1109.98 32.076C1109.83 32.2467 1109.76 32.4867 1109.76 32.796V33.276C1109.76 34.012 1110.15 34.38 1110.93 34.38ZM1118.78 27.692L1118.92 28.908C1119.33 28.4813 1119.82 28.14 1120.39 27.884C1120.97 27.628 1121.54 27.5 1122.1 27.5C1123.08 27.5 1123.77 27.852 1124.18 28.556C1124.6 29.26 1124.81 30.2893 1124.81 31.644C1124.81 32.6573 1124.7 33.4573 1124.49 34.044C1124.28 34.6307 1123.95 35.052 1123.51 35.308C1123.08 35.564 1122.53 35.692 1121.86 35.692C1121.36 35.692 1120.87 35.628 1120.38 35.5C1119.9 35.372 1119.44 35.164 1119.02 34.876C1119.06 35.3987 1119.08 35.9373 1119.06 36.492V38.684H1117.53V27.692H1118.78ZM1121.58 28.796C1121.16 28.796 1120.76 28.892 1120.38 29.084C1119.99 29.2653 1119.56 29.5373 1119.06 29.9V33.964C1119.51 34.092 1119.91 34.1987 1120.26 34.284C1120.63 34.3693 1121.01 34.412 1121.42 34.412C1121.85 34.412 1122.2 34.3373 1122.46 34.188C1122.72 34.0387 1122.92 33.7667 1123.03 33.372C1123.15 32.9667 1123.21 32.3907 1123.21 31.644C1123.21 30.5667 1123.08 29.8253 1122.82 29.42C1122.58 29.004 1122.16 28.796 1121.58 28.796ZM1130.68 27.5C1131.58 27.5 1132.25 27.6867 1132.71 28.06C1133.18 28.4227 1133.42 29.0893 1133.42 30.06V35.5H1132.2L1132.02 34.204C1131.82 34.4173 1131.56 34.636 1131.24 34.86C1130.93 35.084 1130.57 35.2707 1130.17 35.42C1129.76 35.5693 1129.32 35.644 1128.86 35.644C1128.15 35.644 1127.58 35.4573 1127.14 35.084C1126.71 34.7107 1126.49 34.172 1126.49 33.468V32.62C1126.49 32.012 1126.68 31.5373 1127.06 31.196C1127.45 30.8547 1127.99 30.684 1128.7 30.684H1131.88V30.06C1131.87 29.6013 1131.76 29.2707 1131.54 29.068C1131.34 28.8653 1130.94 28.764 1130.34 28.764C1129.93 28.764 1129.42 28.7853 1128.81 28.828C1128.2 28.86 1127.59 28.9027 1126.98 28.956L1126.84 27.852C1127.2 27.788 1127.61 27.7293 1128.06 27.676C1128.5 27.6227 1128.96 27.58 1129.42 27.548C1129.87 27.516 1130.3 27.5 1130.68 27.5ZM1129.21 34.38C1129.58 34.3907 1130.01 34.3053 1130.49 34.124C1130.98 33.932 1131.44 33.6493 1131.88 33.276V31.772L1129.03 31.788C1128.67 31.7987 1128.41 31.8947 1128.26 32.076C1128.11 32.2467 1128.04 32.4867 1128.04 32.796V33.276C1128.04 34.012 1128.43 34.38 1129.21 34.38ZM1137.31 27.692V30.78H1141.22V27.692H1142.74V35.5H1141.22V31.932H1137.31V35.5H1135.79V27.692H1137.31ZM1151.47 27.692V28.94H1148.69V35.5H1147.14V28.94H1144.35V27.692H1151.47ZM1160.1 27.692V35.5H1158.71V30.524C1158.71 30.3533 1158.71 30.1827 1158.72 30.012C1158.74 29.8307 1158.76 29.6387 1158.77 29.436H1158.72C1158.66 29.596 1158.57 29.7667 1158.47 29.948C1158.37 30.1187 1158.28 30.268 1158.18 30.396L1154.39 35.5H1153.09V27.692H1154.48V32.684C1154.48 32.8653 1154.48 33.0413 1154.47 33.212C1154.46 33.372 1154.45 33.5533 1154.44 33.756H1154.47C1154.54 33.5853 1154.63 33.42 1154.72 33.26C1154.83 33.1 1154.93 32.956 1155.03 32.828L1158.82 27.692H1160.1ZM1165.36 27.596C1165.96 27.596 1166.45 27.6013 1166.85 27.612C1167.24 27.612 1167.59 27.6227 1167.9 27.644C1168.21 27.6547 1168.53 27.676 1168.86 27.708V35.5H1167.36V32.652C1167.1 32.652 1166.81 32.652 1166.48 32.652C1166.16 32.652 1165.8 32.652 1165.39 32.652C1164.67 32.652 1164.23 32.908 1164.1 33.42L1163.52 35.5H1161.92L1162.62 33.148C1162.73 32.8067 1162.94 32.5667 1163.25 32.428C1163.56 32.2893 1163.86 32.204 1164.14 32.172V32.108C1163.49 32.012 1163.03 31.7773 1162.77 31.404C1162.5 31.0307 1162.37 30.54 1162.37 29.932C1162.37 29.42 1162.45 28.9933 1162.62 28.652C1162.81 28.3 1163.11 28.0387 1163.54 27.868C1163.97 27.6867 1164.58 27.596 1165.36 27.596ZM1165.44 31.548H1167.36V28.812C1167.09 28.8013 1166.79 28.796 1166.46 28.796C1166.13 28.796 1165.78 28.796 1165.39 28.796C1164.77 28.796 1164.36 28.9027 1164.16 29.116C1163.97 29.3187 1163.87 29.6547 1163.87 30.124C1163.87 30.6253 1163.97 30.988 1164.18 31.212C1164.39 31.436 1164.81 31.548 1165.44 31.548Z" fill="white"/>
<path d="M1216.38 24.252C1217.46 24.252 1218.33 24.428 1218.97 24.78C1219.62 25.132 1220.08 25.724 1220.36 26.556C1220.65 27.388 1220.79 28.5293 1220.79 29.98C1220.79 31.4307 1220.65 32.572 1220.36 33.404C1220.08 34.236 1219.62 34.828 1218.97 35.18C1218.33 35.532 1217.46 35.708 1216.38 35.708C1215.29 35.708 1214.42 35.532 1213.77 35.18C1213.12 34.828 1212.65 34.236 1212.36 33.404C1212.07 32.572 1211.93 31.4307 1211.93 29.98C1211.93 28.5293 1212.07 27.388 1212.36 26.556C1212.65 25.724 1213.12 25.132 1213.77 24.78C1214.42 24.428 1215.29 24.252 1216.38 24.252ZM1216.38 25.644C1215.68 25.644 1215.13 25.7773 1214.73 26.044C1214.33 26.3 1214.05 26.748 1213.88 27.388C1213.71 28.0173 1213.62 28.8813 1213.62 29.98C1213.62 31.0787 1213.71 31.948 1213.88 32.588C1214.05 33.2173 1214.33 33.6653 1214.73 33.932C1215.13 34.188 1215.68 34.316 1216.38 34.316C1217.07 34.316 1217.61 34.188 1218.01 33.932C1218.41 33.6653 1218.7 33.2173 1218.87 32.588C1219.04 31.948 1219.13 31.0787 1219.13 29.98C1219.13 28.8813 1219.04 28.0173 1218.87 27.388C1218.7 26.748 1218.41 26.3 1218.01 26.044C1217.61 25.7773 1217.07 25.644 1216.38 25.644ZM1229.8 27.692V35.5H1228.28V28.892H1224.47V35.5H1222.97V27.692H1229.8ZM1238.54 27.692V28.94H1235.75V35.5H1234.2V28.94H1231.42V27.692H1238.54ZM1246.91 24.46L1240.62 36.572H1239.35L1245.64 24.46H1246.91ZM1256.29 34.316V37.788H1255.26L1255.12 35.5H1248.9L1248.77 37.788H1247.76V34.316H1248.67C1249.03 33.548 1249.3 32.7587 1249.46 31.948C1249.63 31.1373 1249.74 30.3213 1249.81 29.5C1249.9 28.2947 1250.58 27.692 1251.82 27.692H1255.18V34.316H1256.29ZM1251.2 29.756C1251.13 30.652 1251 31.4733 1250.82 32.22C1250.65 32.956 1250.39 33.6547 1250.05 34.316H1253.71V28.844H1252.14C1251.57 28.844 1251.25 29.148 1251.2 29.756ZM1259.32 27.692L1259.47 28.908C1259.87 28.4813 1260.36 28.14 1260.94 27.884C1261.52 27.628 1262.09 27.5 1262.65 27.5C1263.62 27.5 1264.32 27.852 1264.73 28.556C1265.15 29.26 1265.36 30.2893 1265.36 31.644C1265.36 32.6573 1265.25 33.4573 1265.04 34.044C1264.82 34.6307 1264.5 35.052 1264.06 35.308C1263.62 35.564 1263.07 35.692 1262.41 35.692C1261.91 35.692 1261.41 35.628 1260.92 35.5C1260.44 35.372 1259.99 35.164 1259.56 34.876C1259.61 35.3987 1259.62 35.9373 1259.61 36.492V38.684H1258.08V27.692H1259.32ZM1262.12 28.796C1261.71 28.796 1261.31 28.892 1260.92 29.084C1260.54 29.2653 1260.1 29.5373 1259.61 29.9V33.964C1260.06 34.092 1260.46 34.1987 1260.81 34.284C1261.17 34.3693 1261.56 34.412 1261.96 34.412C1262.4 34.412 1262.75 34.3373 1263 34.188C1263.27 34.0387 1263.46 33.7667 1263.58 33.372C1263.7 32.9667 1263.76 32.3907 1263.76 31.644C1263.76 30.5667 1263.63 29.8253 1263.37 29.42C1263.13 29.004 1262.71 28.796 1262.12 28.796ZM1270.84 27.5C1271.75 27.5 1272.47 27.6333 1273.02 27.9C1273.57 28.1667 1273.97 28.604 1274.22 29.212C1274.46 29.8093 1274.59 30.604 1274.59 31.596C1274.59 32.5987 1274.46 33.404 1274.22 34.012C1273.97 34.6093 1273.57 35.0413 1273.02 35.308C1272.47 35.5747 1271.75 35.708 1270.84 35.708C1269.93 35.708 1269.19 35.5747 1268.63 35.308C1268.09 35.0413 1267.7 34.6093 1267.45 34.012C1267.21 33.404 1267.08 32.5987 1267.08 31.596C1267.08 30.604 1267.21 29.8093 1267.45 29.212C1267.7 28.604 1268.09 28.1667 1268.63 27.9C1269.19 27.6333 1269.93 27.5 1270.84 27.5ZM1270.84 28.748C1270.3 28.748 1269.87 28.8333 1269.56 29.004C1269.25 29.1747 1269.03 29.468 1268.89 29.884C1268.76 30.2893 1268.7 30.86 1268.7 31.596C1268.7 32.332 1268.76 32.908 1268.89 33.324C1269.03 33.74 1269.25 34.0333 1269.56 34.204C1269.87 34.364 1270.3 34.444 1270.84 34.444C1271.38 34.444 1271.8 34.364 1272.11 34.204C1272.42 34.0333 1272.63 33.74 1272.76 33.324C1272.89 32.908 1272.95 32.332 1272.95 31.596C1272.95 30.86 1272.89 30.2893 1272.76 29.884C1272.63 29.468 1272.42 29.1747 1272.11 29.004C1271.8 28.8333 1271.38 28.748 1270.84 28.748ZM1283.49 27.692V35.5H1281.97V28.892H1278.16V35.5H1276.65V27.692H1283.49ZM1287.42 27.692V34.316H1290.5V27.692H1291.89V34.316H1294.98V27.692H1296.46V35.5H1285.92V27.692H1287.42ZM1305.91 27.692V35.5H1304.52V30.524C1304.52 30.3533 1304.52 30.1827 1304.54 30.012C1304.56 29.8307 1304.57 29.6387 1304.58 29.436H1304.54C1304.47 29.596 1304.39 29.7667 1304.28 29.948C1304.18 30.1187 1304.09 30.268 1303.99 30.396L1300.2 35.5H1298.9V27.692H1300.3V32.684C1300.3 32.8653 1300.29 33.0413 1300.28 33.212C1300.27 33.372 1300.26 33.5533 1300.25 33.756H1300.28C1300.35 33.5853 1300.44 33.42 1300.54 33.26C1300.64 33.1 1300.74 32.956 1300.84 32.828L1304.63 27.692H1305.91ZM1315.19 27.692V35.5H1313.67V28.892H1309.86V35.5H1308.36V27.692H1315.19ZM1324.45 27.692V35.5H1322.93V28.892H1319.13V35.5H1317.62V27.692H1324.45ZM1333.9 27.692V35.5H1332.5V30.524C1332.5 30.3533 1332.51 30.1827 1332.52 30.012C1332.54 29.8307 1332.56 29.6387 1332.57 29.436H1332.52C1332.46 29.596 1332.37 29.7667 1332.26 29.948C1332.17 30.1187 1332.07 30.268 1331.98 30.396L1328.18 35.5H1326.89V27.692H1328.28V32.684C1328.28 32.8653 1328.27 33.0413 1328.26 33.212C1328.25 33.372 1328.24 33.5533 1328.23 33.756H1328.26C1328.34 33.5853 1328.42 33.42 1328.52 33.26C1328.63 33.1 1328.73 32.956 1328.82 32.828L1332.62 27.692H1333.9ZM1337.86 27.692V30.78H1341.77V27.692H1343.29V35.5H1341.77V31.932H1337.86V35.5H1336.34V27.692H1337.86ZM1347.46 27.644C1348.15 27.644 1348.85 27.6493 1349.56 27.66C1350.27 27.6707 1350.95 27.7133 1351.59 27.788L1351.52 28.876H1348.12C1347.8 28.876 1347.56 28.9507 1347.41 29.1C1347.27 29.2387 1347.2 29.468 1347.2 29.788V35.5H1345.68V29.388C1345.68 28.2253 1346.28 27.644 1347.46 27.644Z" fill="white"/>
<path d="M1394.93 24.46V27.852C1394.93 28.3 1394.9 28.7267 1394.83 29.132H1395.95C1396.57 29.1213 1397.07 28.924 1397.46 28.54C1397.84 28.1453 1398.17 27.596 1398.45 26.892C1398.74 26.188 1399.03 25.3773 1399.34 24.46H1400.98C1400.61 25.516 1400.28 26.4227 1399.97 27.18C1399.67 27.9267 1399.32 28.5187 1398.93 28.956C1398.53 29.3827 1398.02 29.6333 1397.38 29.708V29.772C1397.91 29.8253 1398.35 29.9853 1398.7 30.252C1399.06 30.5187 1399.37 30.892 1399.63 31.372C1399.9 31.8413 1400.15 32.4227 1400.4 33.116C1400.66 33.8093 1400.94 34.604 1401.26 35.5H1399.58C1399.29 34.6467 1399.02 33.9 1398.78 33.26C1398.55 32.62 1398.31 32.0867 1398.06 31.66C1397.82 31.2333 1397.53 30.9133 1397.2 30.7C1396.87 30.476 1396.45 30.364 1395.95 30.364H1394.83C1394.86 30.5667 1394.89 30.764 1394.9 30.956C1394.92 31.148 1394.93 31.3347 1394.93 31.516V35.5H1393.34V24.46H1394.93ZM1406.23 27.5C1407.14 27.5 1407.87 27.6333 1408.41 27.9C1408.96 28.1667 1409.36 28.604 1409.61 29.212C1409.85 29.8093 1409.98 30.604 1409.98 31.596C1409.98 32.5987 1409.85 33.404 1409.61 34.012C1409.36 34.6093 1408.96 35.0413 1408.41 35.308C1407.87 35.5747 1407.14 35.708 1406.23 35.708C1405.32 35.708 1404.58 35.5747 1404.03 35.308C1403.48 35.0413 1403.09 34.6093 1402.84 34.012C1402.6 33.404 1402.47 32.5987 1402.47 31.596C1402.47 30.604 1402.6 29.8093 1402.84 29.212C1403.09 28.604 1403.48 28.1667 1404.03 27.9C1404.58 27.6333 1405.32 27.5 1406.23 27.5ZM1406.23 28.748C1405.69 28.748 1405.26 28.8333 1404.95 29.004C1404.64 29.1747 1404.42 29.468 1404.28 29.884C1404.15 30.2893 1404.09 30.86 1404.09 31.596C1404.09 32.332 1404.15 32.908 1404.28 33.324C1404.42 33.74 1404.64 34.0333 1404.95 34.204C1405.26 34.364 1405.69 34.444 1406.23 34.444C1406.77 34.444 1407.19 34.364 1407.5 34.204C1407.81 34.0333 1408.03 33.74 1408.15 33.324C1408.28 32.908 1408.35 32.332 1408.35 31.596C1408.35 30.86 1408.28 30.2893 1408.15 29.884C1408.03 29.468 1407.81 29.1747 1407.5 29.004C1407.19 28.8333 1406.77 28.748 1406.23 28.748ZM1413.56 27.692V30.78H1417.47V27.692H1418.99V35.5H1417.47V31.932H1413.56V35.5H1412.04V27.692H1413.56ZM1427.72 27.692V28.94H1424.94V35.5H1423.39V28.94H1420.6V27.692H1427.72ZM1433.12 27.5C1434.01 27.5 1434.69 27.6867 1435.15 28.06C1435.62 28.4227 1435.85 29.0893 1435.85 30.06V35.5H1434.64L1434.46 34.204C1434.26 34.4173 1434 34.636 1433.68 34.86C1433.37 35.084 1433.01 35.2707 1432.61 35.42C1432.2 35.5693 1431.76 35.644 1431.29 35.644C1430.59 35.644 1430.02 35.4573 1429.58 35.084C1429.14 34.7107 1428.93 34.172 1428.93 33.468V32.62C1428.93 32.012 1429.12 31.5373 1429.5 31.196C1429.89 30.8547 1430.43 30.684 1431.13 30.684H1434.32V30.06C1434.31 29.6013 1434.19 29.2707 1433.98 29.068C1433.78 28.8653 1433.38 28.764 1432.78 28.764C1432.37 28.764 1431.85 28.7853 1431.25 28.828C1430.64 28.86 1430.03 28.9027 1429.42 28.956L1429.28 27.852C1429.64 27.788 1430.05 27.7293 1430.49 27.676C1430.94 27.6227 1431.39 27.58 1431.85 27.548C1432.31 27.516 1432.73 27.5 1433.12 27.5ZM1431.65 34.38C1432.02 34.3907 1432.45 34.3053 1432.93 34.124C1433.42 33.932 1433.88 33.6493 1434.32 33.276V31.772L1431.47 31.788C1431.11 31.7987 1430.85 31.8947 1430.7 32.076C1430.55 32.2467 1430.48 32.4867 1430.48 32.796V33.276C1430.48 34.012 1430.87 34.38 1431.65 34.38ZM1439.78 27.692V29.948C1439.78 30.2573 1439.75 30.5613 1439.69 30.86H1440.7C1441.19 30.86 1441.58 30.7427 1441.88 30.508C1442.18 30.2733 1442.43 29.9213 1442.65 29.452C1442.86 28.9827 1443.1 28.396 1443.35 27.692H1444.95C1444.65 28.5027 1444.39 29.1747 1444.15 29.708C1443.92 30.2307 1443.64 30.6307 1443.32 30.908C1443 31.1747 1442.56 31.34 1441.99 31.404V31.468C1442.44 31.5107 1442.81 31.612 1443.1 31.772C1443.39 31.932 1443.65 32.172 1443.86 32.492C1444.08 32.8013 1444.28 33.2067 1444.49 33.708C1444.69 34.1987 1444.92 34.796 1445.18 35.5H1443.56C1443.24 34.636 1442.96 33.948 1442.73 33.436C1442.49 32.924 1442.23 32.5613 1441.93 32.348C1441.63 32.124 1441.22 32.0173 1440.7 32.028H1439.7C1439.76 32.284 1439.78 32.5293 1439.78 32.764V35.5H1438.23V27.692H1439.78ZM1453.21 27.692V28.94H1450.42V35.5H1448.87V28.94H1446.09V27.692H1453.21ZM1458.06 30.668C1458.85 30.668 1459.47 30.7427 1459.93 30.892C1460.39 31.0413 1460.71 31.2973 1460.91 31.66C1461.1 32.0227 1461.19 32.5133 1461.19 33.132C1461.19 33.772 1461.09 34.2733 1460.89 34.636C1460.7 34.988 1460.39 35.2387 1459.96 35.388C1459.53 35.5267 1458.98 35.596 1458.3 35.596C1457.76 35.596 1457.31 35.5907 1456.92 35.58C1456.55 35.58 1456.2 35.5693 1455.88 35.548C1455.56 35.5373 1455.23 35.5213 1454.87 35.5H1454.83V27.692H1456.33V30.668H1458.06ZM1464.11 27.692V35.5H1462.55V27.692H1464.11ZM1458.06 31.756H1456.33V34.412C1456.82 34.4227 1457.4 34.428 1458.06 34.428C1458.64 34.428 1459.05 34.3427 1459.27 34.172C1459.51 33.9907 1459.63 33.6227 1459.63 33.068C1459.63 32.5773 1459.52 32.236 1459.31 32.044C1459.09 31.852 1458.68 31.756 1458.06 31.756Z" fill="white"/>
<rect width="310" height="60" transform="translate(310)" fill="#243C53"/>
<path d="M335 31C335.552 31 336 30.5523 336 30C336 29.4477 335.552 29 335 29C334.448 29 334 29.4477 334 30C334 30.5523 334.448 31 335 31Z" fill="white"/>
<path d="M356.724 29H340.276C339.571 29 339 29.4209 339 29.94V30.06C339 30.5791 339.571 31 340.276 31H356.724C357.429 31 358 30.5791 358 30.06V29.94C358 29.4209 357.429 29 356.724 29Z" fill="white"/>
<path d="M356.747 35H335.253C334.561 35 334 35.4209 334 35.94V36.06C334 36.5791 334.561 37 335.253 37H356.747C357.439 37 358 36.5791 358 36.06V35.94C358 35.4209 357.439 35 356.747 35Z" fill="white"/>
<path d="M356.747 23H335.253C334.561 23 334 23.4209 334 23.94V24.06C334 24.5791 334.561 25 335.253 25H356.747C357.439 25 358 24.5791 358 24.06V23.94C358 23.4209 357.439 23 356.747 23Z" fill="white"/>
<path d="M374.928 25.46V28.852C374.928 29.3 374.896 29.7267 374.832 30.132H375.952C376.571 30.1213 377.072 29.924 377.456 29.54C377.84 29.1453 378.171 28.596 378.448 27.892C378.736 27.188 379.035 26.3773 379.344 25.46H380.976C380.613 26.516 380.277 27.4227 379.968 28.18C379.669 28.9267 379.323 29.5187 378.928 29.956C378.533 30.3827 378.016 30.6333 377.376 30.708V30.772C377.909 30.8253 378.352 30.9853 378.704 31.252C379.056 31.5187 379.365 31.892 379.632 32.372C379.899 32.8413 380.155 33.4227 380.4 34.116C380.656 34.8093 380.944 35.604 381.264 36.5H379.584C379.285 35.6467 379.019 34.9 378.784 34.26C378.549 33.62 378.309 33.0867 378.064 32.66C377.819 32.2333 377.531 31.9133 377.2 31.7C376.869 31.476 376.453 31.364 375.952 31.364H374.832C374.864 31.5667 374.885 31.764 374.896 31.956C374.917 32.148 374.928 32.3347 374.928 32.516V36.5H373.344V25.46H374.928ZM386.726 28.5C387.622 28.5 388.3 28.6867 388.758 29.06C389.228 29.4227 389.462 30.0893 389.462 31.06V36.5H388.246L388.07 35.204C387.868 35.4173 387.606 35.636 387.286 35.86C386.977 36.084 386.62 36.2707 386.214 36.42C385.809 36.5693 385.372 36.644 384.902 36.644C384.198 36.644 383.628 36.4573 383.19 36.084C382.753 35.7107 382.534 35.172 382.534 34.468V33.62C382.534 33.012 382.726 32.5373 383.11 32.196C383.494 31.8547 384.038 31.684 384.742 31.684H387.926V31.06C387.916 30.6013 387.804 30.2707 387.59 30.068C387.388 29.8653 386.988 29.764 386.39 29.764C385.974 29.764 385.462 29.7853 384.854 29.828C384.246 29.86 383.638 29.9027 383.03 29.956L382.886 28.852C383.249 28.788 383.654 28.7293 384.102 28.676C384.55 28.6227 385.004 28.58 385.462 28.548C385.921 28.516 386.342 28.5 386.726 28.5ZM385.254 35.38C385.628 35.3907 386.054 35.3053 386.534 35.124C387.025 34.932 387.489 34.6493 387.926 34.276V32.772L385.078 32.788C384.716 32.7987 384.46 32.8947 384.31 33.076C384.161 33.2467 384.086 33.4867 384.086 33.796V34.276C384.086 35.012 384.476 35.38 385.254 35.38ZM398.145 28.692V29.94H395.361V36.5H393.809V29.94H391.025V28.692H398.145ZM403.539 28.5C404.435 28.5 405.112 28.6867 405.571 29.06C406.04 29.4227 406.275 30.0893 406.275 31.06V36.5H405.059L404.883 35.204C404.68 35.4173 404.419 35.636 404.099 35.86C403.79 36.084 403.432 36.2707 403.027 36.42C402.622 36.5693 402.184 36.644 401.715 36.644C401.011 36.644 400.44 36.4573 400.003 36.084C399.566 35.7107 399.347 35.172 399.347 34.468V33.62C399.347 33.012 399.539 32.5373 399.923 32.196C400.307 31.8547 400.851 31.684 401.555 31.684H404.739V31.06C404.728 30.6013 404.616 30.2707 404.403 30.068C404.2 29.8653 403.8 29.764 403.203 29.764C402.787 29.764 402.275 29.7853 401.667 29.828C401.059 29.86 400.451 29.9027 399.843 29.956L399.699 28.852C400.062 28.788 400.467 28.7293 400.915 28.676C401.363 28.6227 401.816 28.58 402.275 28.548C402.734 28.516 403.155 28.5 403.539 28.5ZM402.067 35.38C402.44 35.3907 402.867 35.3053 403.347 35.124C403.838 34.932 404.302 34.6493 404.739 34.276V32.772L401.891 32.788C401.528 32.7987 401.272 32.8947 401.123 33.076C400.974 33.2467 400.899 33.4867 400.899 33.796V34.276C400.899 35.012 401.288 35.38 402.067 35.38ZM415.294 28.692V36.5H413.742V29.86H412.174C411.843 29.86 411.608 29.9347 411.47 30.084C411.331 30.2227 411.24 30.4627 411.198 30.804C411.112 31.4973 411.016 32.2067 410.91 32.932C410.803 33.6573 410.659 34.2813 410.478 34.804C410.286 35.4227 409.966 35.876 409.518 36.164C409.08 36.452 408.536 36.5907 407.886 36.58L407.726 35.412C408.142 35.316 408.446 35.188 408.638 35.028C408.83 34.868 408.979 34.644 409.086 34.356C409.214 34.0467 409.32 33.668 409.406 33.22C409.491 32.7613 409.56 32.2973 409.614 31.828C409.667 31.348 409.71 30.916 409.742 30.532C409.816 29.924 410.014 29.4653 410.334 29.156C410.654 28.8467 411.139 28.692 411.79 28.692H415.294ZM421.124 28.5C422.03 28.5 422.756 28.6333 423.3 28.9C423.854 29.1667 424.254 29.604 424.5 30.212C424.745 30.8093 424.868 31.604 424.868 32.596C424.868 33.5987 424.745 34.404 424.5 35.012C424.254 35.6093 423.854 36.0413 423.3 36.308C422.756 36.5747 422.03 36.708 421.124 36.708C420.206 36.708 419.47 36.5747 418.916 36.308C418.372 36.0413 417.977 35.6093 417.732 35.012C417.486 34.404 417.364 33.5987 417.364 32.596C417.364 31.604 417.486 30.8093 417.732 30.212C417.977 29.604 418.372 29.1667 418.916 28.9C419.47 28.6333 420.206 28.5 421.124 28.5ZM421.124 29.748C420.58 29.748 420.153 29.8333 419.844 30.004C419.534 30.1747 419.31 30.468 419.172 30.884C419.044 31.2893 418.98 31.86 418.98 32.596C418.98 33.332 419.044 33.908 419.172 34.324C419.31 34.74 419.534 35.0333 419.844 35.204C420.153 35.364 420.58 35.444 421.124 35.444C421.657 35.444 422.078 35.364 422.388 35.204C422.697 35.0333 422.916 34.74 423.044 34.324C423.172 33.908 423.236 33.332 423.236 32.596C423.236 31.86 423.172 31.2893 423.044 30.884C422.916 30.468 422.697 30.1747 422.388 30.004C422.078 29.8333 421.657 29.748 421.124 29.748ZM428.679 28.644C429.372 28.644 430.071 28.6493 430.775 28.66C431.489 28.6707 432.167 28.7133 432.807 28.788L432.743 29.876H429.335C429.015 29.876 428.78 29.9507 428.631 30.1C428.492 30.2387 428.423 30.468 428.423 30.788V36.5H426.903V30.388C426.903 29.2253 427.495 28.644 428.679 28.644ZM444.192 28.692V29.94H441.408V36.5H439.856V29.94H437.072V28.692H444.192ZM449.092 28.5C449.999 28.5 450.724 28.6333 451.268 28.9C451.823 29.1667 452.223 29.604 452.468 30.212C452.714 30.8093 452.836 31.604 452.836 32.596C452.836 33.5987 452.714 34.404 452.468 35.012C452.223 35.6093 451.823 36.0413 451.268 36.308C450.724 36.5747 449.999 36.708 449.092 36.708C448.175 36.708 447.439 36.5747 446.884 36.308C446.34 36.0413 445.946 35.6093 445.7 35.012C445.455 34.404 445.332 33.5987 445.332 32.596C445.332 31.604 445.455 30.8093 445.7 30.212C445.946 29.604 446.34 29.1667 446.884 28.9C447.439 28.6333 448.175 28.5 449.092 28.5ZM449.092 29.748C448.548 29.748 448.122 29.8333 447.812 30.004C447.503 30.1747 447.279 30.468 447.14 30.884C447.012 31.2893 446.948 31.86 446.948 32.596C446.948 33.332 447.012 33.908 447.14 34.324C447.279 34.74 447.503 35.0333 447.812 35.204C448.122 35.364 448.548 35.444 449.092 35.444C449.626 35.444 450.047 35.364 450.356 35.204C450.666 35.0333 450.884 34.74 451.012 34.324C451.14 33.908 451.204 33.332 451.204 32.596C451.204 31.86 451.14 31.2893 451.012 30.884C450.884 30.468 450.666 30.1747 450.356 30.004C450.047 29.8333 449.626 29.748 449.092 29.748ZM458.184 28.612C459.005 28.612 459.656 28.6707 460.136 28.788C460.626 28.9053 460.978 29.1133 461.192 29.412C461.405 29.7107 461.512 30.1373 461.512 30.692C461.512 31.2467 461.378 31.668 461.112 31.956C460.845 32.244 460.413 32.4093 459.816 32.452V32.5C460.552 32.564 461.064 32.772 461.352 33.124C461.64 33.4653 461.784 33.9507 461.784 34.58C461.784 35.1133 461.677 35.5293 461.464 35.828C461.25 36.116 460.909 36.3187 460.44 36.436C459.981 36.5533 459.378 36.612 458.632 36.612C458.056 36.612 457.56 36.6067 457.144 36.596C456.738 36.596 456.354 36.5907 455.992 36.58C455.64 36.5693 455.277 36.548 454.904 36.516V28.708C455.234 28.676 455.554 28.6547 455.864 28.644C456.184 28.6333 456.525 28.628 456.888 28.628C457.261 28.6173 457.693 28.612 458.184 28.612ZM458.136 29.764C457.784 29.764 457.458 29.764 457.16 29.764C456.872 29.764 456.605 29.764 456.36 29.764V31.956H458.328C458.957 31.956 459.4 31.8813 459.656 31.732C459.912 31.5827 460.04 31.284 460.04 30.836C460.04 30.4093 459.896 30.1267 459.608 29.988C459.33 29.8387 458.84 29.764 458.136 29.764ZM458.328 32.996H456.36V35.444C456.637 35.444 456.946 35.444 457.288 35.444C457.64 35.444 458.008 35.444 458.391 35.444C459.074 35.444 459.549 35.3693 459.816 35.22C460.093 35.06 460.232 34.7347 460.232 34.244C460.232 33.7747 460.088 33.4493 459.8 33.268C459.522 33.0867 459.032 32.996 458.328 32.996ZM467.586 28.5C468.482 28.5 469.159 28.6867 469.618 29.06C470.087 29.4227 470.322 30.0893 470.322 31.06V36.5H469.106L468.93 35.204C468.727 35.4173 468.466 35.636 468.146 35.86C467.836 36.084 467.479 36.2707 467.074 36.42C466.668 36.5693 466.231 36.644 465.762 36.644C465.058 36.644 464.487 36.4573 464.05 36.084C463.612 35.7107 463.394 35.172 463.394 34.468V33.62C463.394 33.012 463.586 32.5373 463.97 32.196C464.354 31.8547 464.898 31.684 465.602 31.684H468.786V31.06C468.775 30.6013 468.663 30.2707 468.45 30.068C468.247 29.8653 467.847 29.764 467.25 29.764C466.834 29.764 466.322 29.7853 465.714 29.828C465.106 29.86 464.498 29.9027 463.89 29.956L463.746 28.852C464.108 28.788 464.514 28.7293 464.962 28.676C465.41 28.6227 465.863 28.58 466.322 28.548C466.78 28.516 467.202 28.5 467.586 28.5ZM466.114 35.38C466.487 35.3907 466.914 35.3053 467.394 35.124C467.884 34.932 468.348 34.6493 468.786 34.276V32.772L465.938 32.788C465.575 32.7987 465.319 32.8947 465.17 33.076C465.02 33.2467 464.946 33.4867 464.946 33.796V34.276C464.946 35.012 465.335 35.38 466.114 35.38ZM473.964 28.692L474.108 29.908C474.514 29.4813 475.004 29.14 475.58 28.884C476.156 28.628 476.727 28.5 477.292 28.5C478.263 28.5 478.956 28.852 479.372 29.556C479.788 30.26 479.996 31.2893 479.996 32.644C479.996 33.6573 479.89 34.4573 479.676 35.044C479.463 35.6307 479.138 36.052 478.7 36.308C478.263 36.564 477.714 36.692 477.052 36.692C476.551 36.692 476.055 36.628 475.564 36.5C475.084 36.372 474.631 36.164 474.204 35.876C474.247 36.3987 474.263 36.9373 474.252 37.492V39.684H472.716V28.692H473.964ZM476.764 29.796C476.348 29.796 475.948 29.892 475.564 30.084C475.18 30.2653 474.743 30.5373 474.252 30.9V34.964C474.7 35.092 475.1 35.1987 475.452 35.284C475.815 35.3693 476.199 35.412 476.604 35.412C477.042 35.412 477.388 35.3373 477.644 35.188C477.911 35.0387 478.103 34.7667 478.22 34.372C478.338 33.9667 478.396 33.3907 478.396 32.644C478.396 31.5667 478.268 30.8253 478.012 30.42C477.767 30.004 477.351 29.796 476.764 29.796ZM485.483 28.5C486.39 28.5 487.115 28.6333 487.659 28.9C488.214 29.1667 488.614 29.604 488.859 30.212C489.104 30.8093 489.227 31.604 489.227 32.596C489.227 33.5987 489.104 34.404 488.859 35.012C488.614 35.6093 488.214 36.0413 487.659 36.308C487.115 36.5747 486.39 36.708 485.483 36.708C484.566 36.708 483.83 36.5747 483.275 36.308C482.731 36.0413 482.336 35.6093 482.091 35.012C481.846 34.404 481.723 33.5987 481.723 32.596C481.723 31.604 481.846 30.8093 482.091 30.212C482.336 29.604 482.731 29.1667 483.275 28.9C483.83 28.6333 484.566 28.5 485.483 28.5ZM485.483 29.748C484.939 29.748 484.512 29.8333 484.203 30.004C483.894 30.1747 483.67 30.468 483.531 30.884C483.403 31.2893 483.339 31.86 483.339 32.596C483.339 33.332 483.403 33.908 483.531 34.324C483.67 34.74 483.894 35.0333 484.203 35.204C484.512 35.364 484.939 35.444 485.483 35.444C486.016 35.444 486.438 35.364 486.747 35.204C487.056 35.0333 487.275 34.74 487.403 34.324C487.531 33.908 487.595 33.332 487.595 32.596C487.595 31.86 487.531 31.2893 487.403 30.884C487.275 30.468 487.056 30.1747 486.747 30.004C486.438 29.8333 486.016 29.748 485.483 29.748ZM494.574 28.612C495.395 28.612 496.046 28.6707 496.526 28.788C497.017 28.9053 497.369 29.1133 497.582 29.412C497.795 29.7107 497.902 30.1373 497.902 30.692C497.902 31.2467 497.769 31.668 497.502 31.956C497.235 32.244 496.803 32.4093 496.206 32.452V32.5C496.942 32.564 497.454 32.772 497.742 33.124C498.03 33.4653 498.174 33.9507 498.174 34.58C498.174 35.1133 498.067 35.5293 497.854 35.828C497.641 36.116 497.299 36.3187 496.83 36.436C496.371 36.5533 495.769 36.612 495.022 36.612C494.446 36.612 493.95 36.6067 493.534 36.596C493.129 36.596 492.745 36.5907 492.382 36.58C492.03 36.5693 491.667 36.548 491.294 36.516V28.708C491.625 28.676 491.945 28.6547 492.254 28.644C492.574 28.6333 492.915 28.628 493.278 28.628C493.651 28.6173 494.083 28.612 494.574 28.612ZM494.526 29.764C494.174 29.764 493.849 29.764 493.55 29.764C493.262 29.764 492.995 29.764 492.75 29.764V31.956H494.718C495.347 31.956 495.79 31.8813 496.046 31.732C496.302 31.5827 496.43 31.284 496.43 30.836C496.43 30.4093 496.286 30.1267 495.998 29.988C495.721 29.8387 495.23 29.764 494.526 29.764ZM494.718 32.996H492.75V35.444C493.027 35.444 493.337 35.444 493.678 35.444C494.03 35.444 494.398 35.444 494.782 35.444C495.465 35.444 495.939 35.3693 496.206 35.22C496.483 35.06 496.622 34.7347 496.622 34.244C496.622 33.7747 496.478 33.4493 496.19 33.268C495.913 33.0867 495.422 32.996 494.718 32.996Z" fill="white"/>
</svg>
