<svg width="15" height="11" viewBox="0 0 15 11" fill="none" xmlns="http://www.w3.org/2000/svg">
<path d="M7.5 3.20833C6.37242 3.20833 5.45833 4.12242 5.45833 5.25C5.45833 6.37758 6.37242 7.29167 7.5 7.29167C8.62758 7.29167 9.54167 6.37758 9.54167 5.25C9.54167 4.12242 8.62758 3.20833 7.5 3.20833ZM7.5 0C3.63425 0 0.5 4.375 0.5 5.25C0.5 6.125 3.63425 10.5 7.5 10.5C11.3657 10.5 14.5 6.125 14.5 5.25C14.5 4.375 11.3657 0 7.5 0ZM7.5 8.45833C5.72783 8.45833 4.29167 7.02217 4.29167 5.25C4.29167 3.47783 5.72783 2.04167 7.5 2.04167C9.27217 2.04167 10.7083 3.47783 10.7083 5.25C10.7083 7.02217 9.27217 8.45833 7.5 8.45833Z" fill="#9E9EA7"/>
</svg>
