<svg width="29" height="8" viewBox="0 0 29 8" fill="none" xmlns="http://www.w3.org/2000/svg">
<path d="M2.94824 7.25V1.30273H0.824219V0.0917969H6.5127V1.30273H4.39355V7.25H2.94824ZM7.4502 7.25V0.0917969H12.7578V1.30273H8.89551V2.88965H12.4893V4.0957H8.89551V6.04395H12.8945V7.25H7.4502ZM20.5752 7.25H19.0029L18.3779 5.62402H15.5166L14.9258 7.25H13.3926L16.1807 0.0917969H17.709L20.5752 7.25ZM17.9141 4.41797L16.9277 1.76172L15.9609 4.41797H17.9141ZM21.3271 7.25V0.0917969H23.4902L24.7891 4.97461L26.0732 0.0917969H28.2412V7.25H26.8984V1.61523L25.4775 7.25H24.0859L22.6699 1.61523V7.25H21.3271Z" fill="white"/>
</svg>
