<svg width="115" height="50" viewBox="0 0 115 50" fill="none" xmlns="http://www.w3.org/2000/svg">
<g filter="url(#filter0_d_1_107)">
<line x1="4.5" y1="41.5" x2="110.5" y2="41.5" stroke="#C8CACB" stroke-linecap="round"/>
<path d="M29 25C24.5817 25 21 21.4183 21 17C21 12.5817 24.5817 9 29 9C33.4183 9 37 12.5817 37 17C37 21.4183 33.4183 25 29 25Z" stroke="#838688" stroke-width="2" stroke-linecap="round" stroke-linejoin="round"/>
<path d="M18.9996 27.0004L23.3496 22.6504" stroke="#838688" stroke-width="2" stroke-linecap="round" stroke-linejoin="round"/>
<path d="M61.424 13.46V24.5H59.824V14.724H54.944V24.5H53.344V13.46H61.424ZM67.3893 16.5C68.2959 16.5 69.0213 16.6333 69.5653 16.9C70.1199 17.1667 70.5199 17.604 70.7653 18.212C71.0106 18.8093 71.1333 19.604 71.1333 20.596C71.1333 21.5987 71.0106 22.404 70.7653 23.012C70.5199 23.6093 70.1199 24.0413 69.5653 24.308C69.0213 24.5747 68.2959 24.708 67.3893 24.708C66.4719 24.708 65.7359 24.5747 65.1813 24.308C64.6373 24.0413 64.2426 23.6093 63.9973 23.012C63.7519 22.404 63.6293 21.5987 63.6293 20.596C63.6293 19.604 63.7519 18.8093 63.9973 18.212C64.2426 17.604 64.6373 17.1667 65.1813 16.9C65.7359 16.6333 66.4719 16.5 67.3893 16.5ZM67.3893 17.748C66.8453 17.748 66.4186 17.8333 66.1093 18.004C65.7999 18.1747 65.5759 18.468 65.4373 18.884C65.3093 19.2893 65.2453 19.86 65.2453 20.596C65.2453 21.332 65.3093 21.908 65.4373 22.324C65.5759 22.74 65.7999 23.0333 66.1093 23.204C66.4186 23.364 66.8453 23.444 67.3893 23.444C67.9226 23.444 68.3439 23.364 68.6533 23.204C68.9626 23.0333 69.1813 22.74 69.3093 22.324C69.4373 21.908 69.5013 21.332 69.5013 20.596C69.5013 19.86 69.4373 19.2893 69.3093 18.884C69.1813 18.468 68.9626 18.1747 68.6533 18.004C68.3439 17.8333 67.9226 17.748 67.3893 17.748ZM80.2084 16.692V24.5H78.8164V19.524C78.8164 19.3533 78.8217 19.1827 78.8324 19.012C78.8537 18.8307 78.8697 18.6387 78.8804 18.436H78.8324C78.7684 18.596 78.683 18.7667 78.5764 18.948C78.4804 19.1187 78.3844 19.268 78.2884 19.396L74.4964 24.5H73.2004V16.692H74.5924V21.684C74.5924 21.8653 74.587 22.0413 74.5764 22.212C74.5657 22.372 74.555 22.5533 74.5444 22.756H74.5764C74.651 22.5853 74.7364 22.42 74.8324 22.26C74.939 22.1 75.0404 21.956 75.1364 21.828L78.9284 16.692H80.2084ZM86.0455 16.5C86.4082 16.5 86.8295 16.5267 87.3095 16.58C87.8002 16.6333 88.2428 16.7347 88.6375 16.884L88.4455 17.876C88.0722 17.844 87.6882 17.8227 87.2935 17.812C86.9095 17.7907 86.5788 17.78 86.3015 17.78C85.7148 17.78 85.2455 17.8653 84.8935 18.036C84.5415 18.196 84.2855 18.4787 84.1255 18.884C83.9762 19.2893 83.9015 19.8547 83.9015 20.58C83.9015 21.316 83.9762 21.8867 84.1255 22.292C84.2855 22.6973 84.5415 22.9853 84.8935 23.156C85.2455 23.316 85.7148 23.396 86.3015 23.396C86.5468 23.396 86.8935 23.3853 87.3415 23.364C87.7895 23.3427 88.2162 23.3 88.6215 23.236L88.7655 24.26C88.3815 24.4093 87.9495 24.516 87.4695 24.58C86.9895 24.6547 86.5095 24.692 86.0295 24.692C85.1228 24.692 84.3922 24.5587 83.8375 24.292C83.2935 24.0253 82.8988 23.5933 82.6535 22.996C82.4082 22.3987 82.2855 21.5933 82.2855 20.58C82.2855 19.5773 82.4082 18.7773 82.6535 18.18C82.8988 17.5827 83.2935 17.156 83.8375 16.9C84.3922 16.6333 85.1282 16.5 86.0455 16.5ZM92.1274 16.692V18.948C92.1274 19.2573 92.0954 19.5613 92.0314 19.86H93.0394C93.53 19.86 93.9247 19.7427 94.2234 19.508C94.522 19.2733 94.778 18.9213 94.9914 18.452C95.2047 17.9827 95.4394 17.396 95.6954 16.692H97.2954C96.9967 17.5027 96.73 18.1747 96.4954 18.708C96.2607 19.2307 95.9834 19.6307 95.6634 19.908C95.3434 20.1747 94.9007 20.34 94.3354 20.404V20.468C94.7834 20.5107 95.1514 20.612 95.4394 20.772C95.738 20.932 95.994 21.172 96.2074 21.492C96.4207 21.8013 96.6287 22.2067 96.8314 22.708C97.034 23.1987 97.2634 23.796 97.5194 24.5H95.9034C95.5834 23.636 95.306 22.948 95.0714 22.436C94.8367 21.924 94.57 21.5613 94.2714 21.348C93.9727 21.124 93.562 21.0173 93.0394 21.028H92.0474C92.1007 21.284 92.1274 21.5293 92.1274 21.764V24.5H90.5754V16.692H92.1274Z" fill="#838688"/>
</g>
<defs>
<filter id="filter0_d_1_107" x="0" y="0" width="115" height="50" filterUnits="userSpaceOnUse" color-interpolation-filters="sRGB">
<feFlood flood-opacity="0" result="BackgroundImageFix"/>
<feColorMatrix in="SourceAlpha" type="matrix" values="0 0 0 0 0 0 0 0 0 0 0 0 0 0 0 0 0 0 127 0" result="hardAlpha"/>
<feOffset dy="4"/>
<feGaussianBlur stdDeviation="2"/>
<feComposite in2="hardAlpha" operator="out"/>
<feColorMatrix type="matrix" values="0 0 0 0 0 0 0 0 0 0 0 0 0 0 0 0 0 0 0.25 0"/>
<feBlend mode="normal" in2="BackgroundImageFix" result="effect1_dropShadow_1_107"/>
<feBlend mode="normal" in="SourceGraphic" in2="effect1_dropShadow_1_107" result="shape"/>
</filter>
</defs>
</svg>
